<svg width="87" height="40" viewBox="0 0 87 40" fill="none" xmlns="http://www.w3.org/2000/svg">
<path d="M0.6 18.6C1.24 18.6 1.78667 18.4933 2.24 18.28C2.69333 18.04 3.06667 17.7467 3.36 17.4C3.68 17.0267 3.90667 16.6133 4.04 16.16C4.2 15.68 4.28 15.2 4.28 14.72V7.52C4.28 6.42666 4.4 5.45333 4.64 4.6C4.88 3.74667 5.29333 3.04 5.88 2.48C6.46667 1.89333 7.24 1.45333 8.2 1.16C9.18667 0.839998 10.4 0.679998 11.84 0.679998H12V3.6C10.48 3.6 9.38667 3.88 8.72 4.44C8.08 4.97333 7.76 6.01333 7.76 7.56V13.72C7.76 15.48 7.52 16.84 7.04 17.8C6.58667 18.76 5.93333 19.5067 5.08 20.04C5.93333 20.5733 6.58667 21.32 7.04 22.28C7.52 23.24 7.76 24.6 7.76 26.36V32.52C7.76 34.0667 8.08 35.1067 8.72 35.64C9.38667 36.2 10.48 36.48 12 36.48V39.4H11.84C10.4 39.4 9.18667 39.2533 8.2 38.96C7.24 38.6667 6.46667 38.2267 5.88 37.64C5.29333 37.0533 4.88 36.3333 4.64 35.48C4.4 34.6267 4.28 33.6533 4.28 32.56V25.36C4.28 24.88 4.2 24.4133 4.04 23.96C3.90667 23.48 3.68 23.0667 3.36 22.72C3.06667 22.3467 2.69333 22.0533 2.24 21.84C1.78667 21.6 1.24 21.48 0.6 21.48V18.6ZM33.4494 36.24H53.4494V39.4H33.4494V36.24ZM86.3059 21.48C85.6659 21.48 85.1193 21.6 84.6659 21.84C84.2126 22.0533 83.8259 22.3467 83.5059 22.72C83.2126 23.0667 82.9859 23.48 82.8259 23.96C82.6926 24.4133 82.6259 24.88 82.6259 25.36V32.56C82.6259 33.6533 82.5059 34.6267 82.2659 35.48C82.0259 36.3333 81.6126 37.0533 81.0259 37.64C80.4393 38.2267 79.6526 38.6667 78.6659 38.96C77.7059 39.2533 76.5059 39.4 75.0659 39.4H74.9059V36.48C76.4259 36.48 77.5059 36.2 78.1459 35.64C78.8126 35.1067 79.1459 34.0667 79.1459 32.52V26.36C79.1459 24.6 79.3726 23.24 79.8259 22.28C80.3059 21.32 80.9726 20.5733 81.8259 20.04C80.9726 19.5067 80.3059 18.76 79.8259 17.8C79.3726 16.84 79.1459 15.48 79.1459 13.72V7.56C79.1459 6.01333 78.8126 4.97333 78.1459 4.44C77.5059 3.88 76.4259 3.6 74.9059 3.6V0.679998H75.0659C76.5059 0.679998 77.7059 0.839998 78.6659 1.16C79.6526 1.45333 80.4393 1.89333 81.0259 2.48C81.6126 3.04 82.0259 3.74667 82.2659 4.6C82.5059 5.45333 82.6259 6.42666 82.6259 7.52V14.72C82.6259 15.2 82.6926 15.68 82.8259 16.16C82.9859 16.6133 83.2126 17.0267 83.5059 17.4C83.8259 17.7467 84.2126 18.04 84.6659 18.28C85.1193 18.4933 85.6659 18.6 86.3059 18.6V21.48Z" fill="#5522FF"/>
<path d="M22.2003 29.24C26.2536 29.24 28.2803 27.8533 28.2803 25.08C28.2803 24.2267 28.0936 23.5067 27.7203 22.92C27.3736 22.3067 26.8936 21.7867 26.2803 21.36C25.667 20.9067 24.9603 20.52 24.1603 20.2C23.387 19.88 22.5603 19.56 21.6803 19.24C20.667 18.8933 19.707 18.5067 18.8003 18.08C17.8936 17.6267 17.107 17.1067 16.4403 16.52C15.7736 15.9067 15.2403 15.1867 14.8403 14.36C14.467 13.5333 14.2803 12.5333 14.2803 11.36C14.2803 8.93333 15.107 7.04 16.7603 5.68C18.4136 4.32 20.6936 3.64 23.6003 3.64C25.2803 3.64 26.8003 3.82666 28.1603 4.2C29.547 4.54666 30.5603 4.93333 31.2003 5.36L29.9603 8.52C29.4003 8.17333 28.5603 7.84 27.4403 7.52C26.347 7.17333 25.067 7 23.6003 7C22.8536 7 22.1603 7.08 21.5203 7.24C20.8803 7.4 20.3203 7.64 19.8403 7.96C19.3603 8.28 18.9736 8.69333 18.6803 9.2C18.4136 9.68 18.2803 10.2533 18.2803 10.92C18.2803 11.6667 18.427 12.2933 18.7203 12.8C19.0136 13.3067 19.427 13.76 19.9603 14.16C20.4936 14.5333 21.107 14.88 21.8003 15.2C22.5203 15.52 23.307 15.84 24.1603 16.16C25.3603 16.64 26.4536 17.12 27.4403 17.6C28.4536 18.08 29.3203 18.6533 30.0403 19.32C30.787 19.9867 31.3603 20.7867 31.7603 21.72C32.1603 22.6267 32.3603 23.7333 32.3603 25.04C32.3603 27.4667 31.467 29.3333 29.6803 30.64C27.9203 31.9467 25.427 32.6 22.2003 32.6C21.107 32.6 20.0936 32.52 19.1603 32.36C18.2536 32.2267 17.4403 32.0667 16.7203 31.88C16.0003 31.6667 15.3736 31.4533 14.8403 31.24C14.3336 31 13.9336 30.8 13.6403 30.64L14.8003 27.44C15.4136 27.7867 16.347 28.1733 17.6003 28.6C18.8536 29.0267 20.387 29.24 22.2003 29.24ZM63.1769 29.24C67.2302 29.24 69.2569 27.8533 69.2569 25.08C69.2569 24.2267 69.0702 23.5067 68.6969 22.92C68.3502 22.3067 67.8702 21.7867 67.2569 21.36C66.6435 20.9067 65.9369 20.52 65.1369 20.2C64.3635 19.88 63.5369 19.56 62.6569 19.24C61.6435 18.8933 60.6835 18.5067 59.7769 18.08C58.8702 17.6267 58.0835 17.1067 57.4169 16.52C56.7502 15.9067 56.2169 15.1867 55.8169 14.36C55.4435 13.5333 55.2569 12.5333 55.2569 11.36C55.2569 8.93333 56.0835 7.04 57.7369 5.68C59.3902 4.32 61.6702 3.64 64.5769 3.64C66.2569 3.64 67.7769 3.82666 69.1369 4.2C70.5235 4.54666 71.5369 4.93333 72.1769 5.36L70.9369 8.52C70.3769 8.17333 69.5369 7.84 68.4169 7.52C67.3235 7.17333 66.0435 7 64.5769 7C63.8302 7 63.1369 7.08 62.4969 7.24C61.8569 7.4 61.2969 7.64 60.8169 7.96C60.3369 8.28 59.9502 8.69333 59.6569 9.2C59.3902 9.68 59.2569 10.2533 59.2569 10.92C59.2569 11.6667 59.4035 12.2933 59.6969 12.8C59.9902 13.3067 60.4035 13.76 60.9369 14.16C61.4702 14.5333 62.0835 14.88 62.7769 15.2C63.4969 15.52 64.2835 15.84 65.1369 16.16C66.3369 16.64 67.4302 17.12 68.4169 17.6C69.4302 18.08 70.2969 18.6533 71.0169 19.32C71.7635 19.9867 72.3369 20.7867 72.7369 21.72C73.1369 22.6267 73.3369 23.7333 73.3369 25.04C73.3369 27.4667 72.4435 29.3333 70.6569 30.64C68.8969 31.9467 66.4035 32.6 63.1769 32.6C62.0835 32.6 61.0702 32.52 60.1369 32.36C59.2302 32.2267 58.4169 32.0667 57.6969 31.88C56.9769 31.6667 56.3502 31.4533 55.8169 31.24C55.3102 31 54.9102 30.8 54.6169 30.64L55.7769 27.44C56.3902 27.7867 57.3235 28.1733 58.5769 28.6C59.8302 29.0267 61.3635 29.24 63.1769 29.24Z" fill="#DFDFDF"/>
</svg>
